<?xml version="1.0" encoding="utf-8"?>
<!-- Generator: Adobe Illustrator 16.0.0, SVG Export Plug-In . SVG Version: 6.00 Build 0)  -->
<!DOCTYPE svg PUBLIC "-//W3C//DTD SVG 1.1//EN" "http://www.w3.org/Graphics/SVG/1.1/DTD/svg11.dtd">
<svg version="1.1" id="Layer_1" xmlns="http://www.w3.org/2000/svg" xmlns:xlink="http://www.w3.org/1999/xlink" x="0px" y="0px"
	 width="100px" height="100px" viewBox="0 0 100 100" enable-background="new 0 0 100 100" xml:space="preserve">
<path fill="#FFFFFF" stroke="#000000" stroke-miterlimit="10" d="M68.746,62.201c0,9.561-8.394,17.312-18.747,17.312l0,0
	c-10.353,0-18.745-7.751-18.745-17.312V37.798c0-9.561,8.393-17.311,18.745-17.311l0,0c10.353,0,18.747,7.75,18.747,17.311V62.201z"
	/>
<g>
	<line fill="#FFFFFF" x1="50" y1="34.688" x2="50" y2="45.15"/>
	<g>
		<path d="M49.5,34.688c0,3.487,0,6.975,0,10.462c0,0.645,1,0.645,1,0c0-3.487,0-6.975,0-10.462
			C50.5,34.043,49.5,34.043,49.5,34.688L49.5,34.688z"/>
	</g>
</g>
</svg>
